<svg width="34" height="35" viewBox="0 0 34 35" fill="none" xmlns="http://www.w3.org/2000/svg">
<g filter="url(#filter0_d_3_336)">
<path d="M17.2973 17.9317C19.4542 17.9317 21.2027 16.3012 21.2027 14.2899C21.2027 12.2787 19.4542 10.6482 17.2973 10.6482C15.1404 10.6482 13.3919 12.2787 13.3919 14.2899C13.3919 16.3012 15.1404 17.9317 17.2973 17.9317Z" stroke="#FFCD9E" stroke-width="3" stroke-linecap="round" stroke-linejoin="round"/>
<path d="M22.8108 4.00732H11.7838C8.73878 4.00732 6.27029 6.30915 6.27029 9.1486V19.4312C6.27029 22.2706 8.73878 24.5724 11.7838 24.5724H22.8108C25.8559 24.5724 28.3243 22.2706 28.3243 19.4312V9.1486C28.3243 6.30915 25.8559 4.00732 22.8108 4.00732Z" stroke="#FFCD9E" stroke-width="3" stroke-linecap="round" stroke-linejoin="round"/>
<path d="M23.2703 10.434C24.2853 10.434 25.1081 9.66671 25.1081 8.72023C25.1081 7.77375 24.2853 7.00647 23.2703 7.00647C22.2553 7.00647 21.4324 7.77375 21.4324 8.72023C21.4324 9.66671 22.2553 10.434 23.2703 10.434Z" fill="#FFCD9E"/>
</g>
<defs>
<filter id="filter0_d_3_336" x="0.770294" y="2.50732" width="33.054" height="31.5651" filterUnits="userSpaceOnUse" color-interpolation-filters="sRGB">
<feFlood flood-opacity="0" result="BackgroundImageFix"/>
<feColorMatrix in="SourceAlpha" type="matrix" values="0 0 0 0 0 0 0 0 0 0 0 0 0 0 0 0 0 0 127 0" result="hardAlpha"/>
<feOffset dy="4"/>
<feGaussianBlur stdDeviation="2"/>
<feComposite in2="hardAlpha" operator="out"/>
<feColorMatrix type="matrix" values="0 0 0 0 0 0 0 0 0 0 0 0 0 0 0 0 0 0 0.25 0"/>
<feBlend mode="normal" in2="BackgroundImageFix" result="effect1_dropShadow_3_336"/>
<feBlend mode="normal" in="SourceGraphic" in2="effect1_dropShadow_3_336" result="shape"/>
</filter>
</defs>
</svg>
